HIERARCHY
ROOT Hips
{
    OFFSET 0.000000 0.000000 0.000000
    CHANNELS 6 Xposition Yposition Zposition Zrotation Xrotation Yrotation
    JOINT Spine
    {
        OFFSET -0.000000 7.236184 0.000000
        CHANNELS 3 Zrotation Xrotation Yrotation
        JOINT Spine1
        {
            OFFSET -0.000000 20.420147 0.000000
            CHANNELS 3 Zrotation Xrotation Yrotation
            JOINT Neck
            {
                OFFSET -0.000000 20.336288 1.848754
                CHANNELS 3 Zrotation Xrotation Yrotation
                JOINT Head
                {
                    OFFSET -0.000000 12.354461 -1.764923
                    CHANNELS 3 Zrotation Xrotation Yrotation
                    End Site
                    {
                        OFFSET -0.000000 22.061537 0.000000
                    }
                }
            }
            JOINT LeftShoulder
            {
                OFFSET 3.573296 18.396038 -0.314103
                CHANNELS 3 Zrotation Xrotation Yrotation
                JOINT LeftArm
                {
                    OFFSET 10.880760 0.000000 0.000000
                    CHANNELS 3 Zrotation Xrotation Yrotation
                    JOINT LeftForeArm
                    {
                        OFFSET 27.185530 0.000000 0.000000
                        CHANNELS 3 Zrotation Xrotation Yrotation
                        JOINT LeftHand
                        {
                            OFFSET 27.825975 0.000000 0.000000
                            CHANNELS 3 Zrotation Xrotation Yrotation
                            End Site
                            {
                                OFFSET 13.236923 0.000000 0.000000
                            }
                        }
                    }
                }
            }
            JOINT RightShoulder
            {
                OFFSET -3.474926 18.396038 -0.314103
                CHANNELS 3 Zrotation Xrotation Yrotation
                JOINT RightArm
                {
                    OFFSET -10.880760 0.000000 0.000000
                    CHANNELS 3 Zrotation Xrotation Yrotation
                    JOINT RightForeArm
                    {
                        OFFSET -27.185530 0.000000 0.000000
                        CHANNELS 3 Zrotation Xrotation Yrotation
                        JOINT RightHand
                        {
                            OFFSET -27.825975 0.000000 0.000000
                            CHANNELS 3 Zrotation Xrotation Yrotation
                            End Site
                            {
                                OFFSET -13.236923 0.000000 0.000000
                            }
                        }
                    }
                }
            }
        }
    }
    JOINT LeftUpLeg
    {
        OFFSET 8.824615 0.000000 0.000000
        CHANNELS 3 Zrotation Xrotation Yrotation
        JOINT LeftLeg
        {
            OFFSET -0.000000 -35.111282 0.000000
            CHANNELS 3 Zrotation Xrotation Yrotation
            JOINT LeftFoot
            {
                OFFSET -0.000000 -42.324711 0.000000
                CHANNELS 3 Zrotation Xrotation Yrotation
                JOINT LeftToeBase
                {
                    OFFSET -0.000000 -5.735999 13.236923
                    CHANNELS 3 Zrotation Xrotation Yrotation
                    End Site
                    {
                        OFFSET -0.000000 0.000000 3.529846
                    }
                }
            }
        }
    }
    JOINT RightUpLeg
    {
        OFFSET -8.824615 0.000000 0.000000
        CHANNELS 3 Zrotation Xrotation Yrotation
        JOINT RightLeg
        {
            OFFSET -0.000000 -35.111282 0.000000
            CHANNELS 3 Zrotation Xrotation Yrotation
            JOINT RightFoot
            {
                OFFSET -0.000000 -42.324711 0.000000
                CHANNELS 3 Zrotation Xrotation Yrotation
                JOINT RightToeBase
                {
                    OFFSET -0.000000 -5.735999 13.236923
                    CHANNELS 3 Zrotation Xrotation Yrotation
                    End Site
                    {
                        OFFSET -0.000000 0.000000 3.529846
                    }
                }
            }
        }
    }
}
MOTION
Frames:    9
Frame Time:    0.008333
-26.498852    80.281799    107.480957    -1.536185    -6.196005    -178.641815    -2.457761    -9.520537    0.704631    -0.389410    5.572165    0.928264    3.967062    7.775298    -2.009039    5.657922    -9.625903    -1.132591    1.664226    17.252968    -2.767497    -39.637852    48.152905    -46.182743    1.182818    -4.258438    -24.434095    14.409772    -3.974977    0.222154    7.529260    17.828329    -6.449955    37.882030    46.478798    42.041462    -3.982945    -10.120063    32.023140    -11.746527    -8.596396    -3.894185    -3.934046    -15.439838    -7.235705    -0.615051    24.644262    2.827957    -0.332186    -13.191534    -6.359490    -0.266545    -0.584689    0.295768    -4.865090    -8.990182    1.631955    3.100666    16.345278    6.384748    -0.539277    -10.514805    -18.007057    -0.435670    -1.916954    0.472474
-26.472494    80.270081    107.428955    -1.552497    -6.176455    -178.611801    -2.451775    -9.512781    0.708467    -0.408799    5.565516    0.932443    3.951293    7.773100    -2.025015    5.652800    -9.609325    -1.150017    1.656106    17.267420    -2.752038    -39.628277    48.236019    -46.207424    1.201599    -4.232070    -24.564930    14.501611    -3.943599    0.216917    7.506632    17.815834    -6.449772    37.784252    46.639141    42.087349    -4.008155    -10.128806    32.419411    -11.592278    -8.594654    -3.832060    -3.943564    -15.426722    -7.225041    -0.595474    24.726507    2.800568    -0.361816    -13.248339    -6.379350    -0.270896    -0.597013    0.300604    -4.859428    -9.003284    1.642256    3.110530    16.486004    6.304570    -0.524059    -10.596342    -17.975157    -0.445555    -1.927011    0.483201
-26.446093    80.256538    107.378075    -1.568132    -6.156859    -178.581268    -2.445819    -9.503292    0.712175    -0.427213    5.559698    0.936330    3.935995    7.771678    -2.040761    5.648144    -9.594594    -1.167012    1.646688    17.282007    -2.736583    -39.627907    48.313412    -46.224899    1.218222    -4.211442    -24.677248    14.593432    -3.918386    0.213364    7.485815    17.803545    -6.447643    37.674004    46.801086    42.143867    -4.031217    -10.131064    32.788345    -11.443106    -8.588006    -3.764682    -3.953115    -15.421788    -7.215373    -0.577134    24.821348    2.772377    -0.391108    -13.308845    -6.397884    -0.275927    -0.609983    0.306193    -4.852898    -9.028931    1.651805    3.121059    16.649168    6.224209    -0.509197    -10.683201    -17.943712    -0.455338    -1.940813    0.493819
-26.419125    80.240898    107.327545    -1.583607    -6.136889    -178.549866    -2.440081    -9.491518    0.715679    -0.445198    5.554338    0.939964    3.921543    7.770470    -2.056355    5.643111    -9.581502    -1.183874    1.636485    17.296888    -2.720870    -39.639027    48.385559    -46.234131    1.232657    -4.197062    -24.771746    14.684716    -3.899899    0.211125    7.466701    17.791845    -6.443782    37.549835    46.966709    42.213039    -4.052946    -10.126869    33.133530    -11.296326    -8.576344    -3.690965    -3.962844    -15.425452    -7.206104    -0.560048    24.931108    2.743675    -0.420980    -13.374322    -6.416341    -0.281654    -0.623931    0.312556    -4.845865    -9.068403    1.661308    3.133208    16.839111    6.143675    -0.496150    -10.776537    -17.914274    -0.465212    -1.958734    0.504541
-26.391815    80.223259    107.278084    -1.598998    -6.116892    -178.518234    -2.434942    -9.477568    0.718908    -0.462497    5.549686    0.943230    3.907820    7.769150    -2.071513    5.638165    -9.570566    -1.200276    1.625476    17.311583    -2.705187    -39.663853    48.450912    -46.232834    1.245070    -4.190185    -24.846230    14.772204    -3.889422    0.209970    7.449970    17.780796    -6.438226    37.414387    47.133209    42.293892    -4.073523    -10.116302    33.448364    -11.153105    -8.559894    -3.611840    -3.972682    -15.438231    -7.196371    -0.544311    25.055122    2.714583    -0.451727    -13.444054    -6.435116    -0.288116    -0.638908    0.319736    -4.838849    -9.122576    1.670840    3.147477    17.055761    6.064668    -0.486321    -10.875038    -17.888151    -0.474855    -1.981604    0.515015
-26.364166    80.203667    107.229958    -1.614500    -6.097080    -178.486832    -2.430828    -9.461050    0.721779    -0.478959    5.545474    0.946138    3.894769    7.766562    -2.086150    5.633461    -9.561440    -1.216035    1.613937    17.325876    -2.689390    -39.704678    48.508373    -46.219315    1.255682    -4.191622    -24.899925    14.854321    -3.887758    0.209977    7.435518    17.770712    -6.431259    37.269451    47.299625    42.386246    -4.093838    -10.100054    33.730083    -11.013088    -8.539081    -3.527851    -3.982573    -15.460649    -7.185520    -0.530067    25.193586    2.685921    -0.483838    -13.517892    -6.455183    -0.295142    -0.654870    0.327543    -4.832249    -9.192608    1.680490    3.164301    17.300495    5.987451    -0.480519    -10.978047    -17.865416    -0.484201    -2.009699    0.525173
-26.335686    80.181725    107.182709    -1.630575    -6.077288    -178.455536    -2.427863    -9.441555    0.724296    -0.495102    5.541646    0.948733    3.882390    7.762681    -2.100261    5.628968    -9.554987    -1.231228    1.601894    17.339737    -2.673347    -39.765511    48.557251    -46.190445    1.264548    -4.202214    -24.932470    14.931946    -3.895754    0.211109    7.423782    17.761637    -6.422600    37.114555    47.467148    42.490723    -4.114651    -10.078386    33.980267    -10.873796    -8.514091    -3.438011    -3.992636    -15.493952    -7.172432    -0.517243    25.349501    2.657328    -0.518279    -13.596911    -6.477405    -0.302826    -0.672349    0.336081    -4.826547    -9.281343    1.690729    3.184982    17.579550    5.910566    -0.479447    -11.086525    -17.845594    -0.493035    -2.044741    0.534781
-26.306993    80.157898    107.137657    -1.647033    -6.058233    -178.425690    -2.426422    -9.419496    0.726419    -0.510565    5.538545    0.950998    3.871269    7.756140    -2.113400    5.624426    -9.551025    -1.245420    1.589874    17.352835    -2.657535    -39.847515    48.594639    -46.144753    1.271751    -4.222579    -24.942598    15.003201    -3.913971    0.213424    7.415110    17.754070    -6.412686    36.955730    47.630562    42.604092    -4.136430    -10.052613    34.190865    -10.737838    -8.486104    -3.344731    -4.002488    -15.538021    -7.156510    -0.506265    25.519695    2.630111    -0.554766    -13.679107    -6.502140    -0.310670    -0.690913    0.344798    -4.822261    -9.388486    1.701036    3.209480    17.888695    5.835044    -0.483188    -11.197204    -17.827682    -0.500995    -2.086357    0.543447
-26.277277    80.131546    107.094025    -1.664335    -6.039627    -178.397034    -2.426626    -9.393865    0.728211    -0.525724    5.535987    0.953009    3.861042    7.746188    -2.125669    5.619868    -9.550303    -1.258801    1.577582    17.365040    -2.641258    -39.955448    48.620308    -46.078625    1.277938    -4.254414    -24.930058    15.070496    -3.943934    0.217523    7.409377    17.748095    -6.401373    36.790874    47.793270    42.728439    -4.161162    -10.023668    34.365070    -10.601063    -8.455648    -3.246343    -4.012137    -15.594934    -7.136290    -0.496928    25.709290    2.604140    -0.594731    -13.766337    -6.530850    -0.318540    -0.711719    0.353545    -4.819813    -9.518871    1.712220    3.239762    18.238596    5.758209    -0.491962    -11.311949    -17.810629    -0.507883    -2.137701    0.550959
